<svg xmlns="http://www.w3.org/2000/svg" width="47pt" height="47pt" viewBox="0 0 47 47"><path style="stroke:none;fill-rule:nonzero;fill:#f4c55c;fill-opacity:1" d="M25.488 1.11C37.281 4.671 44.91 3.495 46.844 22.36c1.933 18.863-14.602 28.761-28.235 23.003C4.977 39.605 2.641 32.234.242 17.371-2.156 2.508 13.695-2.453 25.488 1.11zm0 0"/><path style="fill:none;stroke-width:3;stroke-linecap:butt;stroke-linejoin:miter;stroke:#fff;stroke-opacity:1;stroke-miterlimit:4" d="M52.633 27.053c0 14.134-11.458 25.572-25.57 25.572S1.493 41.187 1.493 27.053c0-14.108 11.458-25.546 25.57-25.546s25.57 11.438 25.57 25.546zm0 0" transform="matrix(.15307 0 0 .15062 21.998 20.98)"/><path style="fill:none;stroke-width:3;stroke-linecap:butt;stroke-linejoin:miter;stroke:#fff;stroke-opacity:1;stroke-miterlimit:4" d="M65.92 33.71c0 17.79-14.418 32.21-32.205 32.21S1.51 51.5 1.51 33.71c0-17.792 14.418-32.212 32.205-32.212S65.92 15.918 65.92 33.71zm0 0" transform="matrix(.15307 0 0 .15062 21.019 20.016)"/><path style="fill:none;stroke-width:3;stroke-linecap:butt;stroke-linejoin:round;stroke:#fff;stroke-opacity:1;stroke-miterlimit:4" d="m.004-.007 35.435.005.003 10.823-35.435-.005zm0 0" transform="scale(.15307 .15062) rotate(-45 318.444 -26.388)"/><path style="fill:none;stroke-width:3;stroke-linecap:butt;stroke-linejoin:miter;stroke:#fff;stroke-opacity:1;stroke-miterlimit:4" d="M-.006 7.738 7.063.009" transform="matrix(.15307 0 0 .15062 21.407 28.577)"/><path style="fill:none;stroke-width:3;stroke-linecap:round;stroke-linejoin:miter;stroke:#fff;stroke-opacity:1;stroke-miterlimit:4" d="M.005 0H73.32" transform="matrix(.15307 0 0 .15062 16.613 19.387)"/><path style="fill:none;stroke-width:3;stroke-linecap:round;stroke-linejoin:miter;stroke:#fff;stroke-opacity:1;stroke-miterlimit:4" d="M.005.01h7.86" transform="matrix(.15307 0 0 .15062 16.613 17.608)"/><path style="fill:none;stroke-width:3;stroke-linecap:round;stroke-linejoin:miter;stroke:#fff;stroke-opacity:1;stroke-miterlimit:4" d="M-.003.01h19.19" transform="matrix(.15307 0 0 .15062 19.098 17.608)"/><path style="fill:none;stroke-width:3;stroke-linecap:round;stroke-linejoin:miter;stroke:#fff;stroke-opacity:1;stroke-miterlimit:4" d="M.005-.008H29.02" transform="matrix(.15307 0 0 .15062 16.613 21.165)"/><path style="fill:none;stroke-width:3;stroke-linecap:round;stroke-linejoin:miter;stroke:#fff;stroke-opacity:1;stroke-miterlimit:4" d="M-.005.006h23.63" transform="matrix(.15307 0 0 .15062 16.462 25.464)"/><path style="fill:none;stroke-width:3;stroke-linecap:round;stroke-linejoin:miter;stroke:#fff;stroke-opacity:1;stroke-miterlimit:4" d="M-.005-.004h23.63" transform="matrix(.15307 0 0 .15062 16.462 27.169)"/><path style="fill:none;stroke-width:3;stroke-linecap:round;stroke-linejoin:round;stroke:#fff;stroke-opacity:1;stroke-miterlimit:4" d="M-16.865 23.606h-10.54s-1.888.311-2.5-3.268c-.051.338.127-113.801.025-113.672-.28-3.942 4.21-3.527 4.21-3.527h51.754l33.991 33.326v14.342" transform="matrix(.15307 0 0 .15062 20.144 27.538)"/><path style="fill:none;stroke-width:3;stroke-linecap:round;stroke-linejoin:miter;stroke:#fff;stroke-opacity:1;stroke-miterlimit:4" d="M0 8.663s42.77.13 42.822 0c3.827-.13 3.24-3.086 3.24-3.086V.57" transform="matrix(.15307 0 0 .15062 22.262 29.793)"/><path style="fill:none;stroke-width:3;stroke-linecap:round;stroke-linejoin:miter;stroke:#fff;stroke-opacity:1;stroke-miterlimit:4" d="M1.15-.167v28.891s-.026 3.865 3.878 3.787c.026.026 29.347 0 29.347 0" transform="matrix(.15307 0 0 .15062 23.98 13.174)"/></svg>