<svg xmlns="http://www.w3.org/2000/svg" xmlns:xlink="http://www.w3.org/1999/xlink" width="47pt" height="47pt" viewBox="0 0 47 47"><defs><clipPath id="b"><path d="M0 0h47v47H0z"/></clipPath><filter id="a" filterUnits="objectBoundingBox" x="0%" y="0%" width="100%" height="100%"><feColorMatrix in="SourceGraphic" values="0 0 0 0 1 0 0 0 0 1 0 0 0 0 1 0 0 0 1 0"/></filter><mask id="d"><g filter="url(#a)"><path style="fill:#000;fill-opacity:.8;stroke:none" d="M0 0h47v47H0z"/></g></mask><g id="c" clip-path="url(#b)"><path style="stroke:none;fill-rule:nonzero;fill:#fff;fill-opacity:1" d="m32.195 17.133-1.746-1.727a.354.354 0 0 0-.441-.047l-1.942 1.258-2.093-.863-.32-2.227a.346.346 0 0 0-.348-.297h-2.797a.345.345 0 0 0-.344.297l-.32 2.227-2.094.863-1.941-1.258a.354.354 0 0 0-.442.047l-1.746 1.727a.338.338 0 0 0-.043.433l1.293 1.942-.219.496.641.273.293-.664a.35.35 0 0 0-.027-.328l-1.243-1.863 1.344-1.328 1.86 1.203a.362.362 0 0 0 .328.031l2.449-1.012a.343.343 0 0 0 .207-.27l.308-2.124h2.192l.305 2.125c.02.121.097.223.21.27l2.446 1.011c.11.043.23.031.328-.031l1.86-1.203 1.355 1.34-.906 1.52a.34.34 0 0 0-.028.3l.387 1.012.656-.246-.328-.856.961-1.61a.343.343 0 0 0-.055-.421zM27.648 26.465l-1.046-1.035a.351.351 0 0 0-.25-.102H21.46a.351.351 0 0 0-.25.102l-1.047 1.035a.342.342 0 0 0-.102.246v6.91c0 .191.157.344.348.344h6.992a.345.345 0 0 0 .348-.344v-6.91a.342.342 0 0 0-.102-.246zm-2.546-.445h1.105l-1.25 1.238-.555-.547zm-.641 1.726-.453.445a.146.146 0 0 1 0 .204.146.146 0 0 1-.203 0 .143.143 0 0 1-.004-.204l-.45-.449.555-.547zm-.352-1.726-.203.199-.207-.2zm-1.398 0 .7.69-.556.548-1.253-1.238zm-.16 7.257h-1.79v-6.425l.348-.344 1.5 1.484.578.57zm.707 0 .644-4.793c.004-.015.004-.03.004-.047 0 .024 0 .047.008.067l.965 4.773zm3.793 0h-1.457l-.957-4.726.566-.559 1.5-1.484.352.344zm0 0"/><path style="stroke:none;fill-rule:nonzero;fill:#fff;fill-opacity:1" d="M26.355 17.723h-3.148a2.093 2.093 0 0 0-2.098 2.074v2.074c0 1.527 1.254 2.766 2.797 2.766 1.547 0 2.797-1.239 2.797-2.766v-3.805a.348.348 0 0 0-.348-.343zm-.351 4.148a2.086 2.086 0 0 1-2.098 2.074c-1.156 0-2.097-.93-2.097-2.074v-1.383h2.796c.52 0 1.016-.187 1.399-.531zm-1.399-2.074H21.81c0-.762.628-1.383 1.398-1.383h2.797c0 .766-.625 1.383-1.399 1.383zM34.29 27.848l-1.048-1.035a.35.35 0 0 0-.246-.102H30.2a.336.336 0 0 0-.246.102l-1.05 1.035a.342.342 0 0 0-.102.246v5.527c0 .191.156.348.347.348h4.895a.348.348 0 0 0 .348-.348v-5.527a.342.342 0 0 0-.102-.246zm-.595 5.43h-1.75v-5.184h-.699v5.183H29.5v-5.043l.7-.691.8.793.246-.246.25-.242-.453-.45h1.137l-.473.442.238.25.242.254.833-.778.675.668zM31.945 20.836h-.687a1.74 1.74 0 0 0-1.75 1.719l-.004 1.73a2.081 2.081 0 0 0 2.086 2.078h.008a2.081 2.081 0 0 0 2.093-2.07v-1.73c0-.954-.78-1.727-1.746-1.727zm-1.738 1.723a1.042 1.042 0 0 1 1.04-1.032c0 .567-.466 1.028-1.04 1.035zm2.785 1.734c0 .762-.625 1.379-1.394 1.379-.77 0-1.395-.617-1.395-1.379v-.004l.004-1.035a1.77 1.77 0 0 0 1.39-.692c.329.434.848.692 1.4.692zm-1.047-2.766c.578 0 1.047.461 1.047 1.035a1.043 1.043 0 0 1-1.047-1.039zM18.91 27.848l-1.047-1.035a.35.35 0 0 0-.246-.102H14.82a.336.336 0 0 0-.246.102l-1.05 1.035a.342.342 0 0 0-.102.246v5.527c0 .191.156.348.348.348h4.894a.352.352 0 0 0 .352-.348v-5.527c0-.094-.04-.18-.106-.246zm-.594 5.43h-1.75v-5.184h-.699v5.183h-1.746v-5.043l.7-.691.8.793.246-.246.25-.242-.453-.45h1.137l-.473.442.238.25.243.254.832-.778.675.668zM16.566 20.836h-.687c-.961 0-1.742.77-1.746 1.719l-.004 1.73a2.081 2.081 0 0 0 2.086 2.078h.008c1.152 0 2.09-.925 2.093-2.07v-1.73a1.742 1.742 0 0 0-1.75-1.727zm0 .687c.442.004.836.282.985.692h-.633c-.445 0-.836-.277-.984-.692zm-1.398.282v.062c0 .094-.04.18-.105.246a.318.318 0 0 1-.165.086c.059-.148.153-.285.27-.394zm2.445 2.488c0 .762-.625 1.379-1.394 1.379-.77 0-1.395-.617-1.395-1.379v-.004l.004-1.383c.274-.004.54-.11.73-.3a.936.936 0 0 0 .145-.184 1.77 1.77 0 0 0 1.211.488h.7zm0 0"/></g></defs><path style="stroke:none;fill-rule:nonzero;fill:#8e94f2;fill-opacity:1" d="M25.477 1.105C37.215 4.668 44.812 3.488 46.734 22.36 48.66 41.23 32.2 51.125 18.63 45.367 5.062 39.61 2.739 32.238.352 17.371-2.035 2.504 13.742-2.457 25.477 1.105zm0 0"/><use xlink:href="#c" mask="url(#d)"/></svg>
