<svg xmlns="http://www.w3.org/2000/svg" xmlns:xlink="http://www.w3.org/1999/xlink" width="47pt" height="47pt" viewBox="0 0 47 47"><defs><clipPath id="b"><path d="M0 0h47v47H0z"/></clipPath><filter id="a" filterUnits="objectBoundingBox" x="0%" y="0%" width="100%" height="100%"><feColorMatrix in="SourceGraphic" values="0 0 0 0 1 0 0 0 0 1 0 0 0 0 1 0 0 0 1 0"/></filter><mask id="d"><g filter="url(#a)"><path style="fill:#000;fill-opacity:.8;stroke:none" d="M0 0h47v47H0z"/></g></mask><g id="c" clip-path="url(#b)"><path style="stroke:none;fill-rule:nonzero;fill:#fff;fill-opacity:1" d="M28.617 27.434h.7v.695h-.7zM28.617 26.05h.7v.692h-.7zM28.617 24.664h.7v.691h-.7zm0 0"/><path style="stroke:none;fill-rule:nonzero;fill:#fff;fill-opacity:1" d="M32.11 20.867h-2.032l-1.117 1.77-1.113-1.77h-2.032a1.748 1.748 0 0 0-1.75 1.73v2.075h-9.078v-9.68h11.883v1.871c-.23.375-.351.805-.348 1.242 0 1.336 1.094 2.422 2.45 2.422 1.351 0 2.445-1.086 2.445-2.422 0-1.34-1.098-2.421-2.45-2.421-.5 0-.991.152-1.398.437v-1.129h.348c.582 0 1.05-.465 1.05-1.039 0-.574-.472-1.035-1.05-1.035h-13.98c-.583 0-1.051.465-1.051 1.035 0 .574.468 1.04 1.05 1.04h.348v9.675h-.379a1.044 1.044 0 0 0-1.027 1.039c0 .563.457 1.023 1.027 1.035h5.625v5.875h-2.449v1.727h.7v-1.035h6.292v1.035h.7v-1.727h-2.45v-5.879h1.75v3.11h1.399v4.496h6.988v-4.489h1.398v-7.261c0-.953-.785-1.727-1.75-1.727zm-3.141-4.496c.965 0 1.75.774 1.75 1.73 0 .954-.785 1.731-1.75 1.731s-1.75-.777-1.75-1.73c0-.954.785-1.73 1.75-1.73zm-15.032-2.07a.35.35 0 0 1-.351-.348c0-.191.156-.344.351-.344h13.981a.345.345 0 1 1 0 .692zm7.688 18.316h-1.398v-5.879h1.398zm2.45-6.566H13.905a.346.346 0 0 1 0-.692h10.168zm9.085 3.11h-1.398v4.491h-2.45v-3.8h-.699v3.8h-2.449v-4.488h-1.398V22.59c0-.277.109-.54.304-.735.2-.195.465-.304.742-.304h1.645l1.504 2.379 1.508-2.38h1.64c.278 0 .547.11.743.305.199.196.308.457.308.735zm0 0"/><path style="stroke:none;fill-rule:nonzero;fill:#fff;fill-opacity:1" d="M15.684 20.176h.699v3.457h-.7zM17.43 19.14h.699v4.493h-.7zM19.18 20.523h.699v3.11h-.7zM20.926 19.832h.699v3.797h-.7zM22.672 18.445h.703v5.184h-.703zm0 0"/><path style="stroke:none;fill-rule:nonzero;fill:#fff;fill-opacity:1" d="m20.785 15.68.902.898-1.761 2.027-1.797-2.074-2.363 2.727.535.449 1.832-2.113 1.797 2.078 2.254-2.606.84.832V15.68zm0 0"/></g></defs><path style="stroke:none;fill-rule:nonzero;fill:#f2517e;fill-opacity:1" d="M25.477 1.105C37.215 4.668 44.812 3.488 46.734 22.36 48.66 41.23 32.2 51.125 18.63 45.367 5.062 39.61 2.739 32.238.352 17.371-2.035 2.504 13.742-2.457 25.477 1.105zm0 0"/><use xlink:href="#c" mask="url(#d)"/></svg>