<?xml version="1.0" encoding="UTF-8"?>
<svg xmlns="http://www.w3.org/2000/svg" xmlns:xlink="http://www.w3.org/1999/xlink" width="47pt" height="47pt" viewBox="0 0 47 47" version="1.1">
<defs>
<filter id="alpha" filterUnits="objectBoundingBox" x="0%" y="0%" width="100%" height="100%">
  <feColorMatrix type="matrix" in="SourceGraphic" values="0 0 0 0 1 0 0 0 0 1 0 0 0 0 1 0 0 0 1 0"/>
</filter>
<mask id="mask0">
  <g filter="url(#alpha)">
<rect x="0" y="0" width="47" height="47" style="fill:rgb(0%,0%,0%);fill-opacity:0.796078;stroke:none;"/>
  </g>
</mask>
<clipPath id="clip1">
  <rect x="0" y="0" width="47" height="47"/>
</clipPath>
<g id="surface5" clip-path="url(#clip1)">
<path style=" stroke:none;fill-rule:nonzero;fill:rgb(100%,100%,100%);fill-opacity:1;" d="M 31.351562 13.191406 C 31.265625 13.191406 31.183594 13.195312 31.101562 13.203125 C 31.070312 13.195312 31.039062 13.191406 31.003906 13.191406 L 18.601562 13.191406 C 17.148438 13.191406 15.972656 14.355469 15.96875 15.792969 L 15.96875 17.417969 C 15.980469 17.636719 16.160156 17.808594 16.382812 17.808594 C 16.601562 17.808594 16.785156 17.636719 16.792969 17.417969 L 16.792969 15.792969 C 16.792969 14.804688 17.605469 14.003906 18.601562 14.003906 L 29.476562 14.003906 C 29.042969 14.46875 28.800781 15.078125 28.800781 15.710938 C 28.800781 15.722656 28.800781 15.738281 28.800781 15.75 C 28.800781 15.765625 28.800781 15.777344 28.800781 15.792969 L 28.800781 18.570312 C 28.808594 18.789062 28.992188 18.964844 29.210938 18.964844 C 29.433594 18.964844 29.617188 18.789062 29.625 18.570312 L 29.625 16.117188 L 33.488281 16.117188 C 33.714844 16.117188 33.902344 15.933594 33.902344 15.710938 C 33.898438 14.320312 32.757812 13.191406 31.351562 13.191406 Z M 29.675781 15.304688 C 29.863281 14.539062 30.554688 14 31.351562 14 C 32.148438 14 32.839844 14.539062 33.027344 15.304688 Z M 29.675781 15.304688 "/>
<path style=" stroke:none;fill-rule:nonzero;fill:rgb(100%,100%,100%);fill-opacity:1;" d="M 26.738281 15.386719 L 24.125 15.386719 C 23.976562 15.378906 23.835938 15.457031 23.757812 15.585938 C 23.679688 15.710938 23.679688 15.871094 23.757812 16 C 23.835938 16.128906 23.976562 16.203125 24.125 16.199219 L 25.796875 16.199219 L 21.132812 20.8125 L 18.398438 18.105469 C 18.238281 17.949219 17.976562 17.949219 17.816406 18.105469 L 14.125 21.757812 C 13.964844 21.914062 13.964844 22.171875 14.125 22.332031 C 14.289062 22.492188 14.546875 22.492188 14.707031 22.332031 L 18.109375 18.96875 L 20.84375 21.671875 C 21.003906 21.832031 21.265625 21.832031 21.425781 21.671875 L 26.328125 16.824219 L 26.328125 18.375 C 26.324219 18.523438 26.398438 18.664062 26.53125 18.742188 C 26.660156 18.816406 26.820312 18.816406 26.949219 18.742188 C 27.078125 18.664062 27.15625 18.523438 27.152344 18.375 L 27.152344 15.792969 C 27.152344 15.566406 26.964844 15.386719 26.738281 15.386719 Z M 26.738281 15.386719 "/>
<path style=" stroke:none;fill-rule:nonzero;fill:rgb(100%,100%,100%);fill-opacity:1;" d="M 13.546875 22.90625 C 13.386719 22.746094 13.125 22.746094 12.964844 22.90625 C 12.847656 23.023438 12.8125 23.195312 12.878906 23.347656 C 12.941406 23.5 13.089844 23.597656 13.257812 23.597656 C 13.421875 23.597656 13.574219 23.5 13.636719 23.347656 C 13.699219 23.195312 13.664062 23.023438 13.546875 22.90625 Z M 13.546875 22.90625 "/>
<path style=" stroke:none;fill-rule:nonzero;fill:rgb(100%,100%,100%);fill-opacity:1;" d="M 31.597656 25.957031 C 31.597656 25.734375 31.414062 25.550781 31.1875 25.550781 L 28.0625 25.550781 L 28.0625 22.460938 C 28.0625 22.238281 27.875 22.054688 27.648438 22.054688 C 26.097656 22.054688 24.691406 22.953125 24.054688 24.347656 C 23.414062 25.746094 23.660156 27.382812 24.683594 28.535156 C 25.707031 29.683594 27.316406 30.136719 28.800781 29.691406 L 28.800781 31.488281 C 28.800781 32.429688 28.027344 33.195312 27.074219 33.195312 C 26.117188 33.195312 25.34375 32.429688 25.34375 31.488281 C 25.34375 31.476562 25.34375 31.464844 25.34375 31.449219 C 25.347656 31.4375 25.347656 31.421875 25.34375 31.40625 C 25.34375 31.183594 25.160156 31 24.933594 31 L 16.796875 31 L 16.796875 22.300781 C 16.789062 22.082031 16.605469 21.90625 16.382812 21.90625 C 16.164062 21.90625 15.980469 22.082031 15.972656 22.300781 L 15.972656 31 L 14.160156 31 C 13.933594 31 13.75 31.183594 13.75 31.40625 C 13.75 32.84375 14.929688 34.007812 16.382812 34.007812 L 27.074219 34.007812 C 28.480469 34.007812 29.621094 32.878906 29.625 31.488281 L 29.625 29.375 C 29.625 29.363281 29.625 29.355469 29.625 29.34375 C 30.847656 28.644531 31.597656 27.355469 31.597656 25.957031 Z M 16.382812 33.195312 C 15.539062 33.195312 14.8125 32.621094 14.617188 31.8125 L 24.546875 31.8125 C 24.613281 32.328125 24.84375 32.8125 25.199219 33.195312 Z M 27.648438 29.046875 C 26.003906 29.046875 24.640625 27.785156 24.53125 26.164062 C 24.421875 24.539062 25.605469 23.109375 27.238281 22.894531 L 27.238281 25.957031 C 27.238281 26.183594 27.421875 26.367188 27.648438 26.367188 L 30.75 26.367188 C 30.539062 27.902344 29.214844 29.046875 27.648438 29.046875 Z M 27.648438 29.046875 "/>
<path style=" stroke:none;fill-rule:nonzero;fill:rgb(100%,100%,100%);fill-opacity:1;" d="M 29.046875 19.777344 C 28.820312 19.777344 28.636719 19.960938 28.636719 20.183594 L 28.636719 24.578125 C 28.636719 24.800781 28.820312 24.984375 29.046875 24.984375 L 33.488281 24.984375 C 33.71875 24.984375 33.902344 24.800781 33.902344 24.578125 C 33.898438 21.929688 31.726562 19.78125 29.046875 19.777344 Z M 29.460938 24.171875 L 29.460938 20.613281 C 31.359375 20.808594 32.859375 22.292969 33.058594 24.171875 Z M 29.460938 24.171875 "/>
<path style=" stroke:none;fill-rule:nonzero;fill:rgb(100%,100%,100%);fill-opacity:1;" d="M 21.523438 26.363281 L 17.984375 26.363281 C 17.765625 26.371094 17.589844 26.550781 17.589844 26.769531 C 17.589844 26.988281 17.765625 27.167969 17.984375 27.175781 L 21.523438 27.175781 C 21.742188 27.167969 21.917969 26.988281 21.917969 26.769531 C 21.917969 26.550781 21.742188 26.371094 21.523438 26.363281 Z M 21.523438 26.363281 "/>
<path style=" stroke:none;fill-rule:nonzero;fill:rgb(100%,100%,100%);fill-opacity:1;" d="M 23.4375 28.433594 C 23.300781 28.296875 23.082031 28.277344 22.917969 28.386719 C 22.757812 28.492188 22.691406 28.699219 22.769531 28.878906 C 22.84375 29.058594 23.035156 29.160156 23.226562 29.121094 C 23.421875 29.082031 23.558594 28.917969 23.558594 28.722656 C 23.558594 28.613281 23.515625 28.511719 23.4375 28.433594 Z M 23.4375 28.433594 "/>
<path style=" stroke:none;fill-rule:nonzero;fill:rgb(100%,100%,100%);fill-opacity:1;" d="M 21.523438 28.316406 L 17.984375 28.316406 C 17.835938 28.3125 17.695312 28.386719 17.617188 28.515625 C 17.539062 28.644531 17.539062 28.800781 17.617188 28.929688 C 17.695312 29.058594 17.835938 29.132812 17.984375 29.128906 L 21.523438 29.128906 C 21.742188 29.121094 21.917969 28.941406 21.917969 28.722656 C 21.917969 28.503906 21.742188 28.324219 21.523438 28.316406 Z M 21.523438 28.316406 "/>
<path style=" stroke:none;fill-rule:nonzero;fill:rgb(100%,100%,100%);fill-opacity:1;" d="M 19.402344 24.414062 L 17.984375 24.414062 C 17.835938 24.40625 17.695312 24.484375 17.617188 24.613281 C 17.539062 24.738281 17.539062 24.898438 17.617188 25.027344 C 17.695312 25.15625 17.835938 25.230469 17.984375 25.226562 L 19.402344 25.226562 C 19.550781 25.230469 19.691406 25.15625 19.769531 25.027344 C 19.847656 24.898438 19.847656 24.738281 19.769531 24.613281 C 19.691406 24.484375 19.550781 24.40625 19.402344 24.414062 Z M 19.402344 24.414062 "/>
</g>
</defs>
<g id="surface1">
<path style=" stroke:none;fill-rule:nonzero;fill:rgb(21.568627%,69.803922%,93.72549%);fill-opacity:1;" d="M 25.476562 1.105469 C 37.214844 4.667969 44.8125 3.488281 46.734375 22.359375 C 48.660156 41.230469 32.199219 51.125 18.632812 45.367188 C 5.066406 39.609375 2.742188 32.238281 0.355469 17.367188 C -2.035156 2.5 13.742188 -2.457031 25.476562 1.105469 Z M 25.476562 1.105469 "/>
<use xlink:href="#surface5" mask="url(#mask0)"/>
</g>
</svg>
